<svg width="235" height="235" viewBox="0 0 235 235" fill="none" xmlns="http://www.w3.org/2000/svg">
<g filter="url(#filter0_di_423_245)">
<circle cx="117.5" cy="113.5" r="67.5" fill="#F8F8F8"/>
</g>
<path d="M124.584 80.75C125.086 80.75 125.576 80.9096 125.983 81.2058C126.389 81.502 126.691 81.9195 126.845 82.3983L129.457 90.516C130.554 91.0527 131.604 91.656 132.606 92.3352L140.947 90.5398C141.439 90.4348 141.952 90.4886 142.411 90.6934C142.87 90.8983 143.252 91.2437 143.503 91.6798L150.086 103.075C150.338 103.511 150.444 104.015 150.39 104.516C150.337 105.016 150.125 105.486 149.787 105.858L144.063 112.176C144.147 113.387 144.147 114.603 144.063 115.814L149.787 122.141C150.125 122.514 150.337 122.984 150.39 123.484C150.444 123.985 150.338 124.489 150.086 124.925L143.503 136.325C143.252 136.76 142.869 137.105 142.41 137.309C141.951 137.513 141.439 137.566 140.947 137.46L132.606 135.665C131.609 136.339 130.554 136.947 129.462 137.484L126.845 145.602C126.691 146.08 126.389 146.498 125.983 146.794C125.576 147.09 125.086 147.25 124.584 147.25H111.417C110.914 147.25 110.424 147.09 110.018 146.794C109.611 146.498 109.31 146.08 109.156 145.602L106.548 137.489C105.454 136.954 104.398 136.343 103.389 135.66L95.0529 137.46C94.5611 137.565 94.0487 137.511 93.5894 137.307C93.1302 137.102 92.7478 136.756 92.4974 136.32L85.9139 124.925C85.6625 124.489 85.556 123.985 85.6098 123.484C85.6636 122.984 85.8749 122.514 86.2131 122.141L91.9369 115.814C91.854 114.606 91.854 113.394 91.9369 112.186L86.2131 105.858C85.8749 105.486 85.6636 105.016 85.6098 104.516C85.556 104.015 85.6625 103.511 85.9139 103.075L92.4974 91.675C92.7485 91.2398 93.1312 90.8954 93.5904 90.6914C94.0496 90.4874 94.5616 90.4343 95.0529 90.5398L103.389 92.34C104.396 91.6608 105.451 91.048 106.548 90.5113L109.16 82.3983C109.314 81.9211 109.614 81.5047 110.019 81.2086C110.423 80.9126 110.911 80.752 111.412 80.75H124.579H124.584ZM122.845 85.5H113.155L110.457 93.8932L108.638 94.7815C107.744 95.2192 106.88 95.7175 106.054 96.273L104.372 97.413L95.7464 95.551L90.9014 103.949L96.8151 110.495L96.6726 112.508C96.6044 113.502 96.6044 114.498 96.6726 115.492L96.8151 117.505L90.8919 124.051L95.7416 132.449L104.368 130.592L106.049 131.727C106.875 132.283 107.739 132.781 108.633 133.218L110.452 134.107L113.155 142.5H122.855L125.562 134.102L127.377 133.218C128.27 132.782 129.132 132.283 129.956 131.727L131.633 130.592L140.263 132.449L145.108 124.051L139.19 117.505L139.332 115.492C139.401 114.497 139.401 113.498 139.332 112.504L139.19 110.49L145.113 103.949L140.263 95.551L131.633 97.4035L129.956 96.273C129.132 95.7164 128.27 95.218 127.377 94.7815L125.562 93.898L122.85 85.5H122.845Z" fill="#3E3E3E"/>
<path d="M118 99.75C121.779 99.75 125.404 101.251 128.076 103.924C130.749 106.596 132.25 110.221 132.25 114C132.25 117.779 130.749 121.404 128.076 124.076C125.404 126.749 121.779 128.25 118 128.25C114.221 128.25 110.596 126.749 107.924 124.076C105.251 121.404 103.75 117.779 103.75 114C103.75 110.221 105.251 106.596 107.924 103.924C110.596 101.251 114.221 99.75 118 99.75V99.75ZM118 104.5C115.48 104.5 113.064 105.501 111.282 107.282C109.501 109.064 108.5 111.48 108.5 114C108.5 116.52 109.501 118.936 111.282 120.718C113.064 122.499 115.48 123.5 118 123.5C120.52 123.5 122.936 122.499 124.718 120.718C126.499 118.936 127.5 116.52 127.5 114C127.5 111.48 126.499 109.064 124.718 107.282C122.936 105.501 120.52 104.5 118 104.5V104.5Z" fill="#3E3E3E"/>
<defs>
<filter id="filter0_di_423_245" x="0" y="0" width="235" height="235" filterUnits="userSpaceOnUse" color-interpolation-filters="sRGB">
<feFlood flood-opacity="0" result="BackgroundImageFix"/>
<feColorMatrix in="SourceAlpha" type="matrix" values="0 0 0 0 0 0 0 0 0 0 0 0 0 0 0 0 0 0 127 0" result="hardAlpha"/>
<feOffset dy="4"/>
<feGaussianBlur stdDeviation="25"/>
<feComposite in2="hardAlpha" operator="out"/>
<feColorMatrix type="matrix" values="0 0 0 0 0.32549 0 0 0 0 0.592157 0 0 0 0 0.905882 0 0 0 0.5 0"/>
<feBlend mode="normal" in2="BackgroundImageFix" result="effect1_dropShadow_423_245"/>
<feBlend mode="normal" in="SourceGraphic" in2="effect1_dropShadow_423_245" result="shape"/>
<feColorMatrix in="SourceAlpha" type="matrix" values="0 0 0 0 0 0 0 0 0 0 0 0 0 0 0 0 0 0 127 0" result="hardAlpha"/>
<feOffset dy="4"/>
<feGaussianBlur stdDeviation="25"/>
<feComposite in2="hardAlpha" operator="arithmetic" k2="-1" k3="1"/>
<feColorMatrix type="matrix" values="0 0 0 0 0.3255 0 0 0 0 0.591687 0 0 0 0 0.904167 0 0 0 0.5 0"/>
<feBlend mode="normal" in2="shape" result="effect2_innerShadow_423_245"/>
</filter>
</defs>
</svg>
