<svg width="235" height="235" viewBox="0 0 235 235" fill="none" xmlns="http://www.w3.org/2000/svg">
<g filter="url(#filter0_di_423_246)">
<circle cx="117.5" cy="113.5" r="67.5" fill="#F8F8F8"/>
</g>
<path d="M148.115 114.396L138.965 105.246C138.391 104.671 137.612 104.349 136.8 104.349C135.988 104.349 135.209 104.671 134.634 105.246C134.06 105.82 133.737 106.599 133.737 107.411C133.737 108.223 134.06 109.002 134.634 109.577L138.569 113.45H121.55V96.4005L125.484 100.366C125.769 100.648 126.107 100.872 126.479 101.024C126.851 101.175 127.249 101.252 127.65 101.25C128.051 101.252 128.449 101.175 128.821 101.024C129.192 100.872 129.53 100.648 129.815 100.366C130.101 100.082 130.328 99.7447 130.483 99.373C130.638 99.0013 130.718 98.6027 130.718 98.2C130.718 97.7974 130.638 97.3987 130.483 97.0271C130.328 96.6554 130.101 96.3181 129.815 96.0345L120.665 86.8845C120.381 86.6019 120.043 86.3782 119.671 86.2264C119.299 86.0747 118.901 85.9977 118.5 86.0001C117.7 86.0034 116.933 86.3211 116.365 86.8845L107.215 96.0345C106.931 96.3169 106.705 96.6525 106.55 97.0222C106.395 97.3919 106.315 97.7885 106.314 98.1892C106.312 98.59 106.39 98.9871 106.542 99.3579C106.694 99.7287 106.917 100.066 107.2 100.35C107.482 100.635 107.818 100.861 108.187 101.015C108.557 101.17 108.954 101.25 109.354 101.252C110.164 101.255 110.941 100.936 111.516 100.366L115.45 96.431V113.45H98.4005L102.366 109.516C102.94 108.941 103.263 108.162 103.263 107.35C103.263 106.538 102.94 105.759 102.366 105.185C101.791 104.61 101.012 104.288 100.2 104.288C99.3878 104.288 98.6089 104.61 98.0345 105.185L88.8845 114.335C88.6019 114.619 88.3782 114.957 88.2264 115.329C88.0747 115.701 87.9977 116.099 88.0001 116.5C87.9977 116.901 88.0747 117.299 88.2264 117.671C88.3782 118.043 88.6019 118.381 88.8845 118.665L98.0345 127.815C98.3195 128.098 98.6575 128.322 99.0291 128.474C99.4007 128.625 99.7986 128.702 100.2 128.7C100.601 128.702 100.999 128.625 101.371 128.474C101.743 128.322 102.081 128.098 102.366 127.815C102.651 127.532 102.878 127.195 103.033 126.823C103.188 126.451 103.268 126.053 103.268 125.65C103.268 125.247 103.188 124.849 103.033 124.477C102.878 124.105 102.651 123.768 102.366 123.484L98.431 119.55H115.45V136.599L111.516 132.634C111.231 132.35 110.894 132.125 110.522 131.971C110.15 131.817 109.752 131.737 109.35 131.737C108.948 131.737 108.55 131.817 108.178 131.971C107.806 132.125 107.469 132.35 107.185 132.634C106.9 132.919 106.675 133.256 106.521 133.628C106.367 134 106.288 134.398 106.288 134.8C106.288 135.202 106.367 135.6 106.521 135.972C106.675 136.343 106.9 136.681 107.185 136.965L116.335 146.115C116.619 146.398 116.957 146.622 117.329 146.774C117.701 146.925 118.099 147.002 118.5 147C119.3 146.997 120.067 146.679 120.635 146.115L129.785 136.965C130.359 136.391 130.682 135.612 130.682 134.8C130.682 133.988 130.359 133.209 129.785 132.634C129.211 132.06 128.432 131.737 127.619 131.737C126.807 131.737 126.028 132.06 125.454 132.634L121.55 136.569V119.55H138.599L134.634 123.484C134.349 123.768 134.122 124.105 133.967 124.477C133.812 124.849 133.732 125.247 133.732 125.65C133.732 126.053 133.812 126.451 133.967 126.823C134.122 127.195 134.349 127.532 134.634 127.815C134.919 128.098 135.257 128.322 135.629 128.474C136.001 128.625 136.399 128.702 136.8 128.7C137.201 128.702 137.599 128.625 137.971 128.474C138.342 128.322 138.68 128.098 138.965 127.815L148.115 118.665C148.398 118.381 148.622 118.043 148.774 117.671C148.925 117.299 149.002 116.901 149 116.5C148.989 115.71 148.672 114.956 148.115 114.396V114.396Z" fill="#3E3E3E"/>
<defs>
<filter id="filter0_di_423_246" x="0" y="0" width="235" height="235" filterUnits="userSpaceOnUse" color-interpolation-filters="sRGB">
<feFlood flood-opacity="0" result="BackgroundImageFix"/>
<feColorMatrix in="SourceAlpha" type="matrix" values="0 0 0 0 0 0 0 0 0 0 0 0 0 0 0 0 0 0 127 0" result="hardAlpha"/>
<feOffset dy="4"/>
<feGaussianBlur stdDeviation="25"/>
<feComposite in2="hardAlpha" operator="out"/>
<feColorMatrix type="matrix" values="0 0 0 0 0.32549 0 0 0 0 0.592157 0 0 0 0 0.905882 0 0 0 0.5 0"/>
<feBlend mode="normal" in2="BackgroundImageFix" result="effect1_dropShadow_423_246"/>
<feBlend mode="normal" in="SourceGraphic" in2="effect1_dropShadow_423_246" result="shape"/>
<feColorMatrix in="SourceAlpha" type="matrix" values="0 0 0 0 0 0 0 0 0 0 0 0 0 0 0 0 0 0 127 0" result="hardAlpha"/>
<feOffset dy="4"/>
<feGaussianBlur stdDeviation="25"/>
<feComposite in2="hardAlpha" operator="arithmetic" k2="-1" k3="1"/>
<feColorMatrix type="matrix" values="0 0 0 0 0.3255 0 0 0 0 0.591687 0 0 0 0 0.904167 0 0 0 0.5 0"/>
<feBlend mode="normal" in2="shape" result="effect2_innerShadow_423_246"/>
</filter>
</defs>
</svg>
