<svg width="235" height="235" viewBox="0 0 235 235" fill="none" xmlns="http://www.w3.org/2000/svg">
<g filter="url(#filter0_di_423_257)">
<circle cx="117.5" cy="113.5" r="67.5" fill="#F8F8F8"/>
</g>
<path d="M147.115 111.396L137.965 102.246C137.391 101.671 136.612 101.349 135.8 101.349C134.988 101.349 134.209 101.671 133.634 102.246C133.06 102.82 132.737 103.599 132.737 104.411C132.737 105.223 133.06 106.002 133.634 106.577L137.569 110.45H120.55V93.4005L124.484 97.3655C124.769 97.6482 125.107 97.8718 125.479 98.0236C125.851 98.1754 126.249 98.2523 126.65 98.25C127.051 98.2523 127.449 98.1754 127.821 98.0236C128.193 97.8718 128.53 97.6482 128.815 97.3655C129.101 97.082 129.328 96.7447 129.483 96.373C129.638 96.0013 129.718 95.6027 129.718 95.2C129.718 94.7974 129.638 94.3987 129.483 94.0271C129.328 93.6554 129.101 93.3181 128.815 93.0345L119.665 83.8845C119.381 83.6019 119.043 83.3782 118.671 83.2264C118.299 83.0747 117.901 82.9977 117.5 83.0001C116.7 83.0034 115.933 83.3211 115.365 83.8845L106.215 93.0345C105.931 93.3169 105.705 93.6525 105.55 94.0222C105.395 94.3919 105.315 94.7885 105.314 95.1892C105.312 95.59 105.39 95.9871 105.542 96.3579C105.694 96.7287 105.917 97.0659 106.2 97.3503C106.482 97.6347 106.818 97.8606 107.187 98.0153C107.557 98.17 107.954 98.2503 108.354 98.2517C109.164 98.2546 109.941 97.9358 110.516 97.3655L114.45 93.431V110.45H97.4005L101.366 106.516C101.94 105.941 102.263 105.162 102.263 104.35C102.263 103.538 101.94 102.759 101.366 102.185C100.791 101.61 100.012 101.288 99.2 101.288C98.3878 101.288 97.6089 101.61 97.0345 102.185L87.8845 111.335C87.6019 111.619 87.3782 111.957 87.2264 112.329C87.0747 112.701 86.9977 113.099 87.0001 113.5C86.9977 113.901 87.0747 114.299 87.2264 114.671C87.3782 115.043 87.6019 115.381 87.8845 115.665L97.0345 124.815C97.3195 125.098 97.6575 125.322 98.0291 125.474C98.4007 125.625 98.7986 125.702 99.2 125.7C99.6014 125.702 99.9993 125.625 100.371 125.474C100.743 125.322 101.081 125.098 101.366 124.815C101.651 124.532 101.878 124.195 102.033 123.823C102.188 123.451 102.268 123.053 102.268 122.65C102.268 122.247 102.188 121.849 102.033 121.477C101.878 121.105 101.651 120.768 101.366 120.484L97.431 116.55H114.45V133.599L110.516 129.634C110.231 129.35 109.894 129.125 109.522 128.971C109.15 128.817 108.752 128.737 108.35 128.737C107.948 128.737 107.55 128.817 107.178 128.971C106.806 129.125 106.469 129.35 106.185 129.634C105.9 129.919 105.675 130.256 105.521 130.628C105.367 131 105.288 131.398 105.288 131.8C105.288 132.202 105.367 132.6 105.521 132.972C105.675 133.343 105.9 133.681 106.185 133.965L115.335 143.115C115.619 143.398 115.957 143.622 116.329 143.774C116.701 143.925 117.099 144.002 117.5 144C118.3 143.997 119.067 143.679 119.635 143.115L128.785 133.965C129.359 133.391 129.682 132.612 129.682 131.8C129.682 130.988 129.359 130.209 128.785 129.634C128.211 129.06 127.432 128.737 126.619 128.737C125.807 128.737 125.028 129.06 124.454 129.634L120.55 133.569V116.55H137.599L133.634 120.484C133.349 120.768 133.122 121.105 132.967 121.477C132.812 121.849 132.732 122.247 132.732 122.65C132.732 123.053 132.812 123.451 132.967 123.823C133.122 124.195 133.349 124.532 133.634 124.815C133.919 125.098 134.257 125.322 134.629 125.474C135.001 125.625 135.399 125.702 135.8 125.7C136.201 125.702 136.599 125.625 136.971 125.474C137.342 125.322 137.68 125.098 137.965 124.815L147.115 115.665C147.398 115.381 147.622 115.043 147.774 114.671C147.925 114.299 148.002 113.901 148 113.5C147.989 112.71 147.672 111.956 147.115 111.396Z" fill="#3E3E3E"/>
<defs>
<filter id="filter0_di_423_257" x="0" y="0" width="235" height="235" filterUnits="userSpaceOnUse" color-interpolation-filters="sRGB">
<feFlood flood-opacity="0" result="BackgroundImageFix"/>
<feColorMatrix in="SourceAlpha" type="matrix" values="0 0 0 0 0 0 0 0 0 0 0 0 0 0 0 0 0 0 127 0" result="hardAlpha"/>
<feOffset dy="4"/>
<feGaussianBlur stdDeviation="25"/>
<feComposite in2="hardAlpha" operator="out"/>
<feColorMatrix type="matrix" values="0 0 0 0 0.32549 0 0 0 0 0.592157 0 0 0 0 0.905882 0 0 0 0.5 0"/>
<feBlend mode="normal" in2="BackgroundImageFix" result="effect1_dropShadow_423_257"/>
<feBlend mode="normal" in="SourceGraphic" in2="effect1_dropShadow_423_257" result="shape"/>
<feColorMatrix in="SourceAlpha" type="matrix" values="0 0 0 0 0 0 0 0 0 0 0 0 0 0 0 0 0 0 127 0" result="hardAlpha"/>
<feOffset dy="4"/>
<feGaussianBlur stdDeviation="25"/>
<feComposite in2="hardAlpha" operator="arithmetic" k2="-1" k3="1"/>
<feColorMatrix type="matrix" values="0 0 0 0 0.3255 0 0 0 0 0.591687 0 0 0 0 0.904167 0 0 0 0.5 0"/>
<feBlend mode="normal" in2="shape" result="effect2_innerShadow_423_257"/>
</filter>
</defs>
</svg>
