<svg width="235" height="235" viewBox="0 0 235 235" fill="none" xmlns="http://www.w3.org/2000/svg">
<g filter="url(#filter0_di_423_259)">
<circle cx="117.5" cy="113.5" r="67.5" fill="#F8F8F8"/>
</g>
<path d="M124.583 80.75C125.086 80.75 125.576 80.9096 125.982 81.2058C126.388 81.502 126.69 81.9195 126.844 82.3982L129.457 90.516C130.554 91.0527 131.604 91.656 132.606 92.3352L140.947 90.5398C141.439 90.4348 141.951 90.4886 142.41 90.6934C142.87 90.8983 143.252 91.2437 143.502 91.6798L150.086 103.075C150.337 103.511 150.444 104.015 150.39 104.516C150.336 105.016 150.125 105.486 149.787 105.858L144.063 112.176C144.146 113.387 144.146 114.603 144.063 115.814L149.787 122.141C150.125 122.514 150.336 122.984 150.39 123.484C150.444 123.985 150.337 124.489 150.086 124.925L143.502 136.325C143.251 136.76 142.869 137.105 142.409 137.309C141.95 137.513 141.438 137.566 140.947 137.46L132.606 135.665C131.608 136.339 130.554 136.947 129.461 137.484L126.844 145.602C126.69 146.08 126.388 146.498 125.982 146.794C125.576 147.09 125.086 147.25 124.583 147.25H111.416C110.913 147.25 110.423 147.09 110.017 146.794C109.611 146.498 109.309 146.08 109.155 145.602L106.547 137.489C105.453 136.954 104.398 136.343 103.389 135.66L95.0524 137.46C94.5606 137.565 94.0482 137.511 93.5889 137.307C93.1297 137.102 92.7473 136.756 92.4969 136.32L85.9134 124.925C85.662 124.489 85.5555 123.985 85.6093 123.484C85.6631 122.984 85.8744 122.514 86.2127 122.141L91.9364 115.814C91.8535 114.606 91.8535 113.394 91.9364 112.186L86.2127 105.858C85.8744 105.486 85.6631 105.016 85.6093 104.516C85.5555 104.015 85.662 103.511 85.9134 103.075L92.4969 91.675C92.748 91.2398 93.1307 90.8954 93.5899 90.6914C94.0491 90.4874 94.5611 90.4343 95.0524 90.5398L103.389 92.34C104.396 91.6608 105.45 91.048 106.547 90.5113L109.16 82.3982C109.313 81.9211 109.614 81.5047 110.018 81.2086C110.422 80.9126 110.91 80.752 111.411 80.75H124.578H124.583ZM122.845 85.5H113.155L110.457 93.8932L108.637 94.7815C107.743 95.2192 106.88 95.7175 106.053 96.273L104.372 97.413L95.7459 95.551L90.9009 103.949L96.8147 110.495L96.6722 112.508C96.6039 113.502 96.6039 114.498 96.6722 115.492L96.8147 117.506L90.8914 124.051L95.7412 132.449L104.367 130.592L106.049 131.727C106.875 132.283 107.738 132.781 108.633 133.218L110.452 134.107L113.155 142.5H122.854L125.562 134.102L127.376 133.218C128.27 132.782 129.131 132.283 129.955 131.727L131.632 130.592L140.263 132.449L145.108 124.051L139.189 117.506L139.332 115.492C139.4 114.497 139.4 113.498 139.332 112.504L139.189 110.49L145.113 103.949L140.263 95.551L131.632 97.4035L129.955 96.273C129.131 95.7164 128.27 95.218 127.376 94.7815L125.562 93.898L122.849 85.5H122.845Z" fill="#3E3E3E"/>
<path d="M118 99.75C121.779 99.75 125.404 101.251 128.076 103.924C130.749 106.596 132.25 110.221 132.25 114C132.25 117.779 130.749 121.404 128.076 124.076C125.404 126.749 121.779 128.25 118 128.25C114.221 128.25 110.596 126.749 107.924 124.076C105.251 121.404 103.75 117.779 103.75 114C103.75 110.221 105.251 106.596 107.924 103.924C110.596 101.251 114.221 99.75 118 99.75ZM118 104.5C115.48 104.5 113.064 105.501 111.282 107.282C109.501 109.064 108.5 111.48 108.5 114C108.5 116.52 109.501 118.936 111.282 120.718C113.064 122.499 115.48 123.5 118 123.5C120.52 123.5 122.936 122.499 124.718 120.718C126.499 118.936 127.5 116.52 127.5 114C127.5 111.48 126.499 109.064 124.718 107.282C122.936 105.501 120.52 104.5 118 104.5Z" fill="#3E3E3E"/>
<defs>
<filter id="filter0_di_423_259" x="0" y="0" width="235" height="235" filterUnits="userSpaceOnUse" color-interpolation-filters="sRGB">
<feFlood flood-opacity="0" result="BackgroundImageFix"/>
<feColorMatrix in="SourceAlpha" type="matrix" values="0 0 0 0 0 0 0 0 0 0 0 0 0 0 0 0 0 0 127 0" result="hardAlpha"/>
<feOffset dy="4"/>
<feGaussianBlur stdDeviation="25"/>
<feComposite in2="hardAlpha" operator="out"/>
<feColorMatrix type="matrix" values="0 0 0 0 0.32549 0 0 0 0 0.592157 0 0 0 0 0.905882 0 0 0 0.5 0"/>
<feBlend mode="normal" in2="BackgroundImageFix" result="effect1_dropShadow_423_259"/>
<feBlend mode="normal" in="SourceGraphic" in2="effect1_dropShadow_423_259" result="shape"/>
<feColorMatrix in="SourceAlpha" type="matrix" values="0 0 0 0 0 0 0 0 0 0 0 0 0 0 0 0 0 0 127 0" result="hardAlpha"/>
<feOffset dy="4"/>
<feGaussianBlur stdDeviation="25"/>
<feComposite in2="hardAlpha" operator="arithmetic" k2="-1" k3="1"/>
<feColorMatrix type="matrix" values="0 0 0 0 0.3255 0 0 0 0 0.591687 0 0 0 0 0.904167 0 0 0 0.5 0"/>
<feBlend mode="normal" in2="shape" result="effect2_innerShadow_423_259"/>
</filter>
</defs>
</svg>
