<svg width="235" height="235" viewBox="0 0 235 235" fill="none" xmlns="http://www.w3.org/2000/svg">
<g filter="url(#filter0_di_423_248)">
<circle cx="117.5" cy="113.5" r="67.5" fill="#F8F8F8"/>
</g>
<path d="M118 153C97.5649 153 81 136.435 81 116C81 95.5649 97.5649 79 118 79C138.435 79 155 95.5649 155 116C155 136.435 138.435 153 118 153ZM118 145.6C125.85 145.6 133.379 142.481 138.93 136.93C144.481 131.379 147.6 123.85 147.6 116C147.6 108.15 144.481 100.621 138.93 95.0696C133.379 89.5186 125.85 86.4 118 86.4C110.15 86.4 102.621 89.5186 97.0696 95.0696C91.5186 100.621 88.4 108.15 88.4 116C88.4 123.85 91.5186 131.379 97.0696 136.93C102.621 142.481 110.15 145.6 118 145.6ZM99.5 119.7H106.9C106.9 122.644 108.069 125.467 110.151 127.549C112.233 129.631 115.056 130.8 118 130.8C120.944 130.8 123.767 129.631 125.849 127.549C127.931 125.467 129.1 122.644 129.1 119.7H136.5C136.5 124.607 134.551 129.312 131.081 132.781C127.612 136.251 122.907 138.2 118 138.2C113.093 138.2 108.388 136.251 104.919 132.781C101.449 129.312 99.5 124.607 99.5 119.7ZM103.2 112.3C101.728 112.3 100.316 111.715 99.2756 110.674C98.2347 109.634 97.65 108.222 97.65 106.75C97.65 105.278 98.2347 103.866 99.2756 102.826C100.316 101.785 101.728 101.2 103.2 101.2C104.672 101.2 106.084 101.785 107.124 102.826C108.165 103.866 108.75 105.278 108.75 106.75C108.75 108.222 108.165 109.634 107.124 110.674C106.084 111.715 104.672 112.3 103.2 112.3ZM132.8 112.3C131.328 112.3 129.916 111.715 128.876 110.674C127.835 109.634 127.25 108.222 127.25 106.75C127.25 105.278 127.835 103.866 128.876 102.826C129.916 101.785 131.328 101.2 132.8 101.2C134.272 101.2 135.684 101.785 136.724 102.826C137.765 103.866 138.35 105.278 138.35 106.75C138.35 108.222 137.765 109.634 136.724 110.674C135.684 111.715 134.272 112.3 132.8 112.3Z" fill="#3E3E3E"/>
<defs>
<filter id="filter0_di_423_248" x="0" y="0" width="235" height="235" filterUnits="userSpaceOnUse" color-interpolation-filters="sRGB">
<feFlood flood-opacity="0" result="BackgroundImageFix"/>
<feColorMatrix in="SourceAlpha" type="matrix" values="0 0 0 0 0 0 0 0 0 0 0 0 0 0 0 0 0 0 127 0" result="hardAlpha"/>
<feOffset dy="4"/>
<feGaussianBlur stdDeviation="25"/>
<feComposite in2="hardAlpha" operator="out"/>
<feColorMatrix type="matrix" values="0 0 0 0 0.32549 0 0 0 0 0.592157 0 0 0 0 0.905882 0 0 0 0.5 0"/>
<feBlend mode="normal" in2="BackgroundImageFix" result="effect1_dropShadow_423_248"/>
<feBlend mode="normal" in="SourceGraphic" in2="effect1_dropShadow_423_248" result="shape"/>
<feColorMatrix in="SourceAlpha" type="matrix" values="0 0 0 0 0 0 0 0 0 0 0 0 0 0 0 0 0 0 127 0" result="hardAlpha"/>
<feOffset dy="4"/>
<feGaussianBlur stdDeviation="25"/>
<feComposite in2="hardAlpha" operator="arithmetic" k2="-1" k3="1"/>
<feColorMatrix type="matrix" values="0 0 0 0 0.3255 0 0 0 0 0.591687 0 0 0 0 0.904167 0 0 0 0.5 0"/>
<feBlend mode="normal" in2="shape" result="effect2_innerShadow_423_248"/>
</filter>
</defs>
</svg>
