<svg width="235" height="235" viewBox="0 0 235 235" fill="none" xmlns="http://www.w3.org/2000/svg">
<g filter="url(#filter0_di_423_249)">
<circle cx="117.5" cy="113.5" r="67.5" fill="#F8F8F8"/>
</g>
<circle cx="117.5" cy="113.5" r="38" stroke="#3E3E3E" stroke-width="7"/>
<path d="M86.7744 88.7588L147.827 137.441" stroke="#3E3E3E" stroke-width="7"/>
<rect x="97.2168" y="111.514" width="42.1687" height="11.4746" fill="white"/>
<path d="M117.684 94.0151C111.861 93.93 103.771 94.0545 102.106 98.5111L98.0137 108.076C97.8322 107.869 97.5942 107.719 97.3287 107.645L95.6811 107.183C95.5 107.132 95.3105 107.117 95.1235 107.139C94.9365 107.161 94.7556 107.22 94.5914 107.311C94.4272 107.403 94.2828 107.526 94.1665 107.674C94.0501 107.821 93.9642 107.99 93.9136 108.171L93.0541 111.211C93.0028 111.391 92.9878 111.58 93.0099 111.766C93.032 111.953 93.0908 112.133 93.1829 112.296C93.275 112.46 93.3987 112.603 93.5467 112.719C93.6948 112.835 93.8643 112.921 94.0456 112.971L95.6936 113.433C95.7486 113.448 95.8036 113.453 95.8586 113.462C95.5436 114.244 95.3476 115.104 95.3476 115.615V126.732C95.3476 127.302 95.5876 127.566 95.9687 127.689V130.651C95.9681 130.913 96.0196 131.174 96.1203 131.417C96.2211 131.66 96.369 131.881 96.5556 132.067C96.7422 132.252 96.9639 132.4 97.2078 132.5C97.4518 132.6 97.7132 132.652 97.9772 132.651H103.366C103.63 132.652 103.891 132.6 104.135 132.5C104.379 132.4 104.601 132.252 104.787 132.067C104.974 131.881 105.122 131.66 105.223 131.417C105.323 131.174 105.375 130.913 105.374 130.651V127.798H130.626V130.651C130.626 130.913 130.677 131.174 130.778 131.417C130.879 131.66 131.027 131.881 131.214 132.066C131.4 132.252 131.622 132.4 131.866 132.5C132.11 132.6 132.371 132.652 132.635 132.651H138.023C138.287 132.652 138.548 132.6 138.792 132.5C139.036 132.4 139.258 132.253 139.445 132.067C139.631 131.881 139.779 131.66 139.88 131.417C139.981 131.174 140.033 130.914 140.032 130.651V127.69C140.414 127.566 140.652 127.302 140.652 126.732V115.616C140.652 115.104 140.456 114.245 140.141 113.463C140.196 113.454 140.251 113.449 140.306 113.434L141.955 112.972C142.136 112.921 142.306 112.836 142.454 112.72C142.602 112.604 142.725 112.46 142.817 112.296C142.909 112.133 142.968 111.953 142.99 111.767C143.012 111.581 142.997 111.392 142.946 111.211L142.087 108.171C142.037 107.991 141.951 107.822 141.834 107.674C141.718 107.527 141.574 107.404 141.409 107.312C141.245 107.22 141.064 107.161 140.877 107.139C140.69 107.118 140.501 107.133 140.319 107.184L138.672 107.645C138.406 107.72 138.168 107.87 137.986 108.076L133.894 98.5116C132.109 93.9873 123.508 94.1008 117.684 94.0156L117.684 94.0151ZM134.363 108.68C134.46 108.967 134.17 109.158 133.867 109.175C133.867 109.175 132.875 109.259 131.507 109.369C130.466 106.947 128.047 105.239 125.244 105.239C122.169 105.239 119.558 107.296 118.72 110.097C118.488 110.1 118.218 110.11 118.003 110.11C112.704 110.11 102.133 109.175 102.133 109.175C101.83 109.157 101.54 108.966 101.637 108.68C105.708 96.3176 105.829 97.247 117.775 97.377C129.72 97.5065 129.79 96.6235 134.363 108.68ZM125.244 107.576C125.982 107.573 126.708 107.754 127.358 108.101C128.008 108.448 128.561 108.95 128.968 109.563C126.575 109.74 123.822 109.921 121.256 110.026C121.625 109.288 122.194 108.667 122.899 108.234C123.604 107.801 124.416 107.573 125.244 107.576ZM97.7032 111.588C97.7392 111.641 97.7742 111.694 97.8142 111.745H97.6592L97.7032 111.588ZM100.35 114.692C101.398 114.675 107.024 116.562 107.024 116.562C107.727 116.759 108.345 118.082 108.342 118.809C108.331 121.258 101.987 120.408 99.4117 120.418C99.2386 120.418 99.0672 120.384 98.9072 120.318C98.7473 120.253 98.6019 120.156 98.4795 120.034C98.3571 119.912 98.2601 119.767 98.1939 119.608C98.1278 119.449 98.0939 119.278 98.0942 119.106V116.005C98.0942 115.278 99.3022 114.71 100.35 114.692ZM135.65 114.692C136.698 114.71 137.906 115.278 137.906 116.005V119.106C137.906 119.278 137.872 119.449 137.806 119.608C137.74 119.768 137.643 119.912 137.521 120.034C137.398 120.156 137.253 120.253 137.093 120.319C136.933 120.385 136.761 120.418 136.588 120.418C134.013 120.408 127.669 121.258 127.658 118.809C127.655 118.082 128.273 116.759 128.976 116.562C128.976 116.562 134.602 114.675 135.65 114.692Z" fill="#3E3E3E"/>
<defs>
<filter id="filter0_di_423_249" x="0" y="0" width="235" height="235" filterUnits="userSpaceOnUse" color-interpolation-filters="sRGB">
<feFlood flood-opacity="0" result="BackgroundImageFix"/>
<feColorMatrix in="SourceAlpha" type="matrix" values="0 0 0 0 0 0 0 0 0 0 0 0 0 0 0 0 0 0 127 0" result="hardAlpha"/>
<feOffset dy="4"/>
<feGaussianBlur stdDeviation="25"/>
<feComposite in2="hardAlpha" operator="out"/>
<feColorMatrix type="matrix" values="0 0 0 0 0.32549 0 0 0 0 0.592157 0 0 0 0 0.905882 0 0 0 0.5 0"/>
<feBlend mode="normal" in2="BackgroundImageFix" result="effect1_dropShadow_423_249"/>
<feBlend mode="normal" in="SourceGraphic" in2="effect1_dropShadow_423_249" result="shape"/>
<feColorMatrix in="SourceAlpha" type="matrix" values="0 0 0 0 0 0 0 0 0 0 0 0 0 0 0 0 0 0 127 0" result="hardAlpha"/>
<feOffset dy="4"/>
<feGaussianBlur stdDeviation="25"/>
<feComposite in2="hardAlpha" operator="arithmetic" k2="-1" k3="1"/>
<feColorMatrix type="matrix" values="0 0 0 0 0.3255 0 0 0 0 0.591687 0 0 0 0 0.904167 0 0 0 0.5 0"/>
<feBlend mode="normal" in2="shape" result="effect2_innerShadow_423_249"/>
</filter>
</defs>
</svg>
