<svg width="235" height="235" viewBox="0 0 235 235" fill="none" xmlns="http://www.w3.org/2000/svg">
<g filter="url(#filter0_di_423_250)">
<circle cx="117.5" cy="113.5" r="67.5" fill="#F8F8F8"/>
</g>
<path fill-rule="evenodd" clip-rule="evenodd" d="M96.3 91C97.7056 91 99.0537 91.5584 100.048 92.5523C101.042 93.5463 101.6 94.8944 101.6 96.3C101.6 97.7056 101.042 99.0537 100.048 100.048C99.0537 101.042 97.7056 101.6 96.3 101.6C94.8944 101.6 93.5463 101.042 92.5523 100.048C91.5584 99.0537 91 97.7056 91 96.3C91 94.8944 91.5584 93.5463 92.5523 92.5523C93.5463 91.5584 94.8944 91 96.3 91ZM117.5 91C118.906 91 120.254 91.5584 121.248 92.5523C122.242 93.5463 122.8 94.8944 122.8 96.3C122.8 97.7056 122.242 99.0537 121.248 100.048C120.254 101.042 118.906 101.6 117.5 101.6C116.094 101.6 114.746 101.042 113.752 100.048C112.758 99.0537 112.2 97.7056 112.2 96.3C112.2 94.8944 112.758 93.5463 113.752 92.5523C114.746 91.5584 116.094 91 117.5 91ZM144 96.3C144 94.8944 143.442 93.5463 142.448 92.5523C141.454 91.5584 140.106 91 138.7 91C137.294 91 135.946 91.5584 134.952 92.5523C133.958 93.5463 133.4 94.8944 133.4 96.3C133.4 97.7056 133.958 99.0537 134.952 100.048C135.946 101.042 137.294 101.6 138.7 101.6C140.106 101.6 141.454 101.042 142.448 100.048C143.442 99.0537 144 97.7056 144 96.3ZM96.3 112.2C97.7056 112.2 99.0537 112.758 100.048 113.752C101.042 114.746 101.6 116.094 101.6 117.5C101.6 118.906 101.042 120.254 100.048 121.248C99.0537 122.242 97.7056 122.8 96.3 122.8C94.8944 122.8 93.5463 122.242 92.5523 121.248C91.5584 120.254 91 118.906 91 117.5C91 116.094 91.5584 114.746 92.5523 113.752C93.5463 112.758 94.8944 112.2 96.3 112.2ZM122.8 117.5C122.8 116.094 122.242 114.746 121.248 113.752C120.254 112.758 118.906 112.2 117.5 112.2C116.094 112.2 114.746 112.758 113.752 113.752C112.758 114.746 112.2 116.094 112.2 117.5C112.2 118.906 112.758 120.254 113.752 121.248C114.746 122.242 116.094 122.8 117.5 122.8C118.906 122.8 120.254 122.242 121.248 121.248C122.242 120.254 122.8 118.906 122.8 117.5ZM138.7 112.2C140.106 112.2 141.454 112.758 142.448 113.752C143.442 114.746 144 116.094 144 117.5C144 118.906 143.442 120.254 142.448 121.248C141.454 122.242 140.106 122.8 138.7 122.8C137.294 122.8 135.946 122.242 134.952 121.248C133.958 120.254 133.4 118.906 133.4 117.5C133.4 116.094 133.958 114.746 134.952 113.752C135.946 112.758 137.294 112.2 138.7 112.2ZM101.6 138.7C101.6 137.294 101.042 135.946 100.048 134.952C99.0537 133.958 97.7056 133.4 96.3 133.4C94.8944 133.4 93.5463 133.958 92.5523 134.952C91.5584 135.946 91 137.294 91 138.7C91 140.106 91.5584 141.454 92.5523 142.448C93.5463 143.442 94.8944 144 96.3 144C97.7056 144 99.0537 143.442 100.048 142.448C101.042 141.454 101.6 140.106 101.6 138.7ZM117.5 133.4C118.906 133.4 120.254 133.958 121.248 134.952C122.242 135.946 122.8 137.294 122.8 138.7C122.8 140.106 122.242 141.454 121.248 142.448C120.254 143.442 118.906 144 117.5 144C116.094 144 114.746 143.442 113.752 142.448C112.758 141.454 112.2 140.106 112.2 138.7C112.2 137.294 112.758 135.946 113.752 134.952C114.746 133.958 116.094 133.4 117.5 133.4ZM144 138.7C144 137.294 143.442 135.946 142.448 134.952C141.454 133.958 140.106 133.4 138.7 133.4C137.294 133.4 135.946 133.958 134.952 134.952C133.958 135.946 133.4 137.294 133.4 138.7C133.4 140.106 133.958 141.454 134.952 142.448C135.946 143.442 137.294 144 138.7 144C140.106 144 141.454 143.442 142.448 142.448C143.442 141.454 144 140.106 144 138.7Z" fill="#3E3E3E"/>
<defs>
<filter id="filter0_di_423_250" x="0" y="0" width="235" height="235" filterUnits="userSpaceOnUse" color-interpolation-filters="sRGB">
<feFlood flood-opacity="0" result="BackgroundImageFix"/>
<feColorMatrix in="SourceAlpha" type="matrix" values="0 0 0 0 0 0 0 0 0 0 0 0 0 0 0 0 0 0 127 0" result="hardAlpha"/>
<feOffset dy="4"/>
<feGaussianBlur stdDeviation="25"/>
<feComposite in2="hardAlpha" operator="out"/>
<feColorMatrix type="matrix" values="0 0 0 0 0.32549 0 0 0 0 0.592157 0 0 0 0 0.905882 0 0 0 0.5 0"/>
<feBlend mode="normal" in2="BackgroundImageFix" result="effect1_dropShadow_423_250"/>
<feBlend mode="normal" in="SourceGraphic" in2="effect1_dropShadow_423_250" result="shape"/>
<feColorMatrix in="SourceAlpha" type="matrix" values="0 0 0 0 0 0 0 0 0 0 0 0 0 0 0 0 0 0 127 0" result="hardAlpha"/>
<feOffset dy="4"/>
<feGaussianBlur stdDeviation="25"/>
<feComposite in2="hardAlpha" operator="arithmetic" k2="-1" k3="1"/>
<feColorMatrix type="matrix" values="0 0 0 0 0.3255 0 0 0 0 0.591687 0 0 0 0 0.904167 0 0 0 0.5 0"/>
<feBlend mode="normal" in2="shape" result="effect2_innerShadow_423_250"/>
</filter>
</defs>
</svg>
