<svg width="235" height="235" viewBox="0 0 235 235" fill="none" xmlns="http://www.w3.org/2000/svg">
<g filter="url(#filter0_di_423_251)">
<circle cx="117.5" cy="113.5" r="67.5" fill="#F8F8F8"/>
</g>
<path d="M145.6 89.4H133V84.6C133 84.27 132.73 84 132.4 84H128.2C127.87 84 127.6 84.27 127.6 84.6V89.4H108.4V84.6C108.4 84.27 108.13 84 107.8 84H103.6C103.27 84 103 84.27 103 84.6V89.4H90.4C89.0725 89.4 88 90.4725 88 91.8V141.6C88 142.928 89.0725 144 90.4 144H145.6C146.928 144 148 142.928 148 141.6V91.8C148 90.4725 146.928 89.4 145.6 89.4ZM142.6 138.6H93.4V110.1H142.6V138.6ZM142.6 105H93.4V94.8H103V98.4C103 98.73 103.27 99 103.6 99H107.8C108.13 99 108.4 98.73 108.4 98.4V94.8H127.6V98.4C127.6 98.73 127.87 99 128.2 99H132.4C132.73 99 133 98.73 133 98.4V94.8H142.6V105Z" fill="#3E3E3E"/>
<rect x="100.895" y="115.842" width="8.1579" height="6.31579" fill="#3E3E3E"/>
<rect x="100.895" y="126.369" width="8.1579" height="6.31579" fill="#3E3E3E"/>
<rect x="113.79" y="115.842" width="8.1579" height="6.31579" fill="#3E3E3E"/>
<rect x="113.79" y="126.369" width="8.1579" height="6.31579" fill="#3E3E3E"/>
<rect x="126.684" y="115.842" width="8.1579" height="6.31579" fill="#3E3E3E"/>
<rect x="126.684" y="126.369" width="8.1579" height="6.31579" fill="#3E3E3E"/>
<defs>
<filter id="filter0_di_423_251" x="0" y="0" width="235" height="235" filterUnits="userSpaceOnUse" color-interpolation-filters="sRGB">
<feFlood flood-opacity="0" result="BackgroundImageFix"/>
<feColorMatrix in="SourceAlpha" type="matrix" values="0 0 0 0 0 0 0 0 0 0 0 0 0 0 0 0 0 0 127 0" result="hardAlpha"/>
<feOffset dy="4"/>
<feGaussianBlur stdDeviation="25"/>
<feComposite in2="hardAlpha" operator="out"/>
<feColorMatrix type="matrix" values="0 0 0 0 0.32549 0 0 0 0 0.592157 0 0 0 0 0.905882 0 0 0 0.5 0"/>
<feBlend mode="normal" in2="BackgroundImageFix" result="effect1_dropShadow_423_251"/>
<feBlend mode="normal" in="SourceGraphic" in2="effect1_dropShadow_423_251" result="shape"/>
<feColorMatrix in="SourceAlpha" type="matrix" values="0 0 0 0 0 0 0 0 0 0 0 0 0 0 0 0 0 0 127 0" result="hardAlpha"/>
<feOffset dy="4"/>
<feGaussianBlur stdDeviation="25"/>
<feComposite in2="hardAlpha" operator="arithmetic" k2="-1" k3="1"/>
<feColorMatrix type="matrix" values="0 0 0 0 0.3255 0 0 0 0 0.591687 0 0 0 0 0.904167 0 0 0 0.5 0"/>
<feBlend mode="normal" in2="shape" result="effect2_innerShadow_423_251"/>
</filter>
</defs>
</svg>
