<svg width="28" height="28" viewBox="0 0 28 28" fill="none" xmlns="http://www.w3.org/2000/svg">
<path d="M23.9364 1.64645L23.5829 1.29289L23.2293 1.64645L14 10.8758L4.7707 1.64645L4.41714 1.29289L4.06359 1.64645L1.64645 4.06359L1.29289 4.41714L1.64645 4.7707L10.8758 14L1.64645 23.2293L1.29289 23.5829L1.64645 23.9364L4.06359 26.3536L4.41714 26.7071L4.7707 26.3536L14 17.1242L23.2293 26.3536L23.5829 26.7071L23.9364 26.3536L26.3536 23.9364L26.7071 23.5829L26.3536 23.2293L17.1242 14L26.3536 4.7707L26.7071 4.41714L26.3536 4.06359L23.9364 1.64645Z" fill="white" stroke="white"/>
</svg>
