<svg width="235" height="235" viewBox="0 0 235 235" fill="none" xmlns="http://www.w3.org/2000/svg">
<g filter="url(#filter0_di_437_244)">
<circle cx="117.5" cy="113.5" r="67.5" fill="#F8F8F8"/>
</g>
<path d="M100.717 132.283C96.4021 128.008 93.75 122.071 93.75 115.5C93.75 108.929 96.4021 102.992 100.717 98.7167L106.338 104.338C103.448 107.188 101.667 111.146 101.667 115.5C101.667 119.854 103.448 123.813 106.298 126.702L100.717 132.283ZM134.283 132.283C138.598 128.008 141.25 122.071 141.25 115.5C141.25 108.929 138.598 102.992 134.283 98.7167L128.663 104.338C131.552 107.188 133.333 111.146 133.333 115.5C133.333 119.854 131.552 123.813 128.702 126.702L134.283 132.283ZM117.5 107.583C113.146 107.583 109.583 111.146 109.583 115.5C109.583 119.854 113.146 123.417 117.5 123.417C121.854 123.417 125.417 119.854 125.417 115.5C125.417 111.146 121.854 107.583 117.5 107.583ZM149.167 115.5C149.167 124.248 145.604 132.165 139.865 137.865L145.485 143.485C152.65 136.321 157.083 126.425 157.083 115.5C157.083 104.575 152.65 94.6792 145.485 87.5146L139.865 93.1355C142.817 96.0627 145.16 99.5467 146.757 103.386C148.353 107.225 149.173 111.342 149.167 115.5ZM95.1354 93.1355L89.5146 87.5146C82.35 94.6792 77.9167 104.575 77.9167 115.5C77.9167 126.425 82.35 136.321 89.5146 143.485L95.1354 137.865C89.3959 132.165 85.8334 124.248 85.8334 115.5C85.8334 106.752 89.3959 98.8355 95.1354 93.1355Z" fill="#3E3E3E"/>
<defs>
<filter id="filter0_di_437_244" x="0" y="0" width="235" height="235" filterUnits="userSpaceOnUse" color-interpolation-filters="sRGB">
<feFlood flood-opacity="0" result="BackgroundImageFix"/>
<feColorMatrix in="SourceAlpha" type="matrix" values="0 0 0 0 0 0 0 0 0 0 0 0 0 0 0 0 0 0 127 0" result="hardAlpha"/>
<feOffset dy="4"/>
<feGaussianBlur stdDeviation="25"/>
<feComposite in2="hardAlpha" operator="out"/>
<feColorMatrix type="matrix" values="0 0 0 0 0.32549 0 0 0 0 0.592157 0 0 0 0 0.905882 0 0 0 0.5 0"/>
<feBlend mode="normal" in2="BackgroundImageFix" result="effect1_dropShadow_437_244"/>
<feBlend mode="normal" in="SourceGraphic" in2="effect1_dropShadow_437_244" result="shape"/>
<feColorMatrix in="SourceAlpha" type="matrix" values="0 0 0 0 0 0 0 0 0 0 0 0 0 0 0 0 0 0 127 0" result="hardAlpha"/>
<feOffset dy="4"/>
<feGaussianBlur stdDeviation="25"/>
<feComposite in2="hardAlpha" operator="arithmetic" k2="-1" k3="1"/>
<feColorMatrix type="matrix" values="0 0 0 0 0.3255 0 0 0 0 0.591687 0 0 0 0 0.904167 0 0 0 0.5 0"/>
<feBlend mode="normal" in2="shape" result="effect2_innerShadow_437_244"/>
</filter>
</defs>
</svg>
