<svg width="235" height="235" viewBox="0 0 235 235" fill="none" xmlns="http://www.w3.org/2000/svg">
<g filter="url(#filter0_di_587_293)">
<circle cx="117.5" cy="113.5" r="67.5" fill="#F8F8F8"/>
</g>
<path d="M103.102 135.312L113.378 125.036L109.965 121.623L99.6893 131.899L97.7751 129.984C97.3225 129.532 96.7086 129.278 96.0685 129.278C95.4285 129.278 94.8146 129.532 94.362 129.984L84.7067 139.64C84.2542 140.092 84 140.706 84 141.346C84 141.986 84.2542 142.6 84.7067 143.053L91.9482 150.294C92.4008 150.747 93.0147 151.001 93.6547 151.001C94.2948 151.001 94.9086 150.747 95.3613 150.294L105.017 140.639C105.469 140.186 105.723 139.573 105.723 138.932C105.723 138.292 105.469 137.679 105.017 137.226L103.102 135.312ZM93.6547 145.175L89.8264 141.346L96.0685 135.104L99.8969 138.932L93.6547 145.175Z" fill="#3E3E3E"/>
<path d="M139.518 148.588C135.678 148.583 131.997 147.056 129.282 144.341C126.567 141.626 125.039 137.945 125.035 134.105C125.036 132.843 125.206 131.587 125.542 130.371L104.633 109.46C103.416 109.795 102.159 109.966 100.897 109.967C98.537 109.976 96.211 109.407 94.1227 108.308C92.0344 107.209 90.2475 105.615 88.9187 103.665C87.5899 101.715 86.7597 99.4689 86.501 97.1234C86.2423 94.778 86.563 92.4048 87.4348 90.2121L88.7817 86.7821L96.7763 94.7766C97.2357 95.2153 97.8464 95.4601 98.4816 95.4601C99.1168 95.4601 99.7276 95.2153 100.187 94.7766C100.411 94.5527 100.589 94.2867 100.711 93.9938C100.832 93.701 100.895 93.3871 100.895 93.0701C100.895 92.7531 100.832 92.4392 100.711 92.1463C100.589 91.8535 100.411 91.5875 100.187 91.3635L92.1949 83.3641L95.6297 82.0197C97.8224 81.1493 100.195 80.83 102.54 81.0896C104.885 81.3491 107.13 82.1797 109.079 83.5086C111.028 84.8375 112.622 86.624 113.72 88.7118C114.819 90.7996 115.388 93.1248 115.38 95.4839C115.378 96.7457 115.208 98.0016 114.873 99.2181L135.783 120.129C137 119.794 138.256 119.624 139.518 119.622C141.877 119.613 144.203 120.182 146.292 121.281C148.38 122.38 150.167 123.974 151.496 125.924C152.824 127.874 153.655 130.12 153.913 132.465C154.172 134.811 153.851 137.184 152.979 139.377L151.635 142.807L143.638 134.812C143.179 134.373 142.568 134.129 141.933 134.129C141.297 134.129 140.687 134.373 140.227 134.812C140.003 135.036 139.825 135.302 139.703 135.595C139.581 135.887 139.519 136.201 139.518 136.518C139.518 136.835 139.58 137.149 139.702 137.442C139.823 137.735 140.001 138.001 140.225 138.225L148.222 146.222L144.789 147.569C143.112 148.236 141.323 148.582 139.518 148.588V148.588ZM105.874 103.874L131.125 129.125L130.548 130.598C129.983 132.011 129.762 133.538 129.903 135.054C130.045 136.569 130.545 138.03 131.362 139.314C132.18 140.598 133.291 141.669 134.604 142.439C135.917 143.208 137.394 143.655 138.914 143.741L136.812 141.641C136.139 140.968 135.606 140.17 135.242 139.291C134.878 138.413 134.69 137.471 134.69 136.52C134.69 135.569 134.878 134.627 135.242 133.748C135.606 132.87 136.139 132.071 136.812 131.399C138.191 130.082 140.025 129.347 141.933 129.347C143.84 129.347 145.674 130.082 147.054 131.399L149.154 133.501C149.067 131.982 148.62 130.504 147.85 129.191C147.08 127.878 146.009 126.767 144.725 125.95C143.44 125.132 141.98 124.632 140.465 124.491C138.949 124.349 137.421 124.57 136.008 125.135L134.538 125.712L109.289 100.464L109.869 98.9912C110.434 97.5777 110.655 96.05 110.513 94.5343C110.372 93.0186 109.871 91.5584 109.054 90.2743C108.236 88.9902 107.125 87.919 105.811 87.1494C104.498 86.3797 103.02 85.9336 101.5 85.848L103.6 87.948C104.273 88.6204 104.806 89.4188 105.17 90.2974C105.534 91.1761 105.722 92.1178 105.722 93.0689C105.722 94.0199 105.534 94.9617 105.17 95.8403C104.806 96.719 104.273 97.5173 103.6 98.1898C102.221 99.507 100.387 100.242 98.4792 100.242C96.5718 100.242 94.7378 99.507 93.3583 98.1898L91.2583 96.0874C91.3443 97.6071 91.7907 99.0845 92.5605 100.398C93.3303 101.711 94.4015 102.822 95.6855 103.639C96.9696 104.457 98.4297 104.957 99.9452 105.098C101.461 105.24 102.988 105.019 104.402 104.454L105.874 103.874Z" fill="#3E3E3E"/>
<path d="M151.883 83.0522C150.504 81.735 148.67 81 146.762 81C144.855 81 143.021 81.735 141.641 83.0522L123.586 101.108L126.999 104.521L145.054 86.4653C145.514 86.0265 146.125 85.7817 146.761 85.7817C147.397 85.7817 148.008 86.0265 148.468 86.4653C148.919 86.9186 149.172 87.5322 149.172 88.1719C149.172 88.8116 148.919 89.4252 148.468 89.8785L130.412 107.934L133.825 111.349L151.881 93.294C153.237 91.935 153.999 90.0933 153.999 88.1731C153.999 86.2529 153.237 84.4112 151.881 83.0522H151.883Z" fill="#3E3E3E"/>
<defs>
<filter id="filter0_di_587_293" x="0" y="0" width="235" height="235" filterUnits="userSpaceOnUse" color-interpolation-filters="sRGB">
<feFlood flood-opacity="0" result="BackgroundImageFix"/>
<feColorMatrix in="SourceAlpha" type="matrix" values="0 0 0 0 0 0 0 0 0 0 0 0 0 0 0 0 0 0 127 0" result="hardAlpha"/>
<feOffset dy="4"/>
<feGaussianBlur stdDeviation="25"/>
<feComposite in2="hardAlpha" operator="out"/>
<feColorMatrix type="matrix" values="0 0 0 0 0.32549 0 0 0 0 0.592157 0 0 0 0 0.905882 0 0 0 0.5 0"/>
<feBlend mode="normal" in2="BackgroundImageFix" result="effect1_dropShadow_587_293"/>
<feBlend mode="normal" in="SourceGraphic" in2="effect1_dropShadow_587_293" result="shape"/>
<feColorMatrix in="SourceAlpha" type="matrix" values="0 0 0 0 0 0 0 0 0 0 0 0 0 0 0 0 0 0 127 0" result="hardAlpha"/>
<feOffset dy="4"/>
<feGaussianBlur stdDeviation="25"/>
<feComposite in2="hardAlpha" operator="arithmetic" k2="-1" k3="1"/>
<feColorMatrix type="matrix" values="0 0 0 0 0.3255 0 0 0 0 0.591687 0 0 0 0 0.904167 0 0 0 0.5 0"/>
<feBlend mode="normal" in2="shape" result="effect2_innerShadow_587_293"/>
</filter>
</defs>
</svg>
