<svg width="235" height="235" viewBox="0 0 235 235" fill="none" xmlns="http://www.w3.org/2000/svg">
<g filter="url(#filter0_di_587_296)">
<circle cx="117.5" cy="113.5" r="67.5" fill="#F8F8F8"/>
</g>
<path d="M124.583 84.75C125.086 84.75 125.576 84.9096 125.982 85.2058C126.388 85.502 126.69 85.9195 126.844 86.3983L129.457 94.516C130.554 95.0527 131.604 95.656 132.606 96.3352L140.947 94.5398C141.439 94.4348 141.951 94.4886 142.41 94.6934C142.87 94.8983 143.252 95.2437 143.502 95.6798L150.086 107.075C150.337 107.511 150.444 108.015 150.39 108.516C150.336 109.016 150.125 109.486 149.787 109.858L144.063 116.176C144.146 117.387 144.146 118.603 144.063 119.814L149.787 126.141C150.125 126.514 150.336 126.984 150.39 127.484C150.444 127.985 150.337 128.489 150.086 128.925L143.502 140.325C143.251 140.76 142.869 141.105 142.409 141.309C141.95 141.513 141.438 141.566 140.947 141.46L132.606 139.665C131.608 140.339 130.554 140.947 129.461 141.484L126.844 149.602C126.69 150.08 126.388 150.498 125.982 150.794C125.576 151.09 125.086 151.25 124.583 151.25H111.416C110.913 151.25 110.423 151.09 110.017 150.794C109.611 150.498 109.309 150.08 109.155 149.602L106.547 141.489C105.453 140.954 104.398 140.343 103.389 139.66L95.0524 141.46C94.5606 141.565 94.0482 141.511 93.5889 141.307C93.1297 141.102 92.7473 140.756 92.4969 140.32L85.9134 128.925C85.662 128.489 85.5555 127.985 85.6093 127.484C85.6631 126.984 85.8744 126.514 86.2127 126.141L91.9364 119.814C91.8535 118.606 91.8535 117.394 91.9364 116.186L86.2127 109.858C85.8744 109.486 85.6631 109.016 85.6093 108.516C85.5555 108.015 85.662 107.511 85.9134 107.075L92.4969 95.675C92.748 95.2398 93.1307 94.8954 93.5899 94.6914C94.0491 94.4874 94.5611 94.4343 95.0524 94.5398L103.389 96.34C104.396 95.6608 105.45 95.048 106.547 94.5113L109.16 86.3983C109.313 85.9211 109.614 85.5047 110.018 85.2086C110.422 84.9126 110.91 84.752 111.411 84.75H124.578H124.583ZM122.845 89.5H113.155L110.457 97.8932L108.637 98.7815C107.743 99.2192 106.88 99.7175 106.053 100.273L104.372 101.413L95.7459 99.551L90.9009 107.949L96.8147 114.495L96.6722 116.508C96.6039 117.502 96.6039 118.498 96.6722 119.492L96.8147 121.505L90.8914 128.051L95.7412 136.449L104.367 134.592L106.049 135.727C106.875 136.283 107.738 136.781 108.633 137.218L110.452 138.107L113.155 146.5H122.854L125.562 138.102L127.376 137.218C128.27 136.782 129.131 136.283 129.955 135.727L131.632 134.592L140.263 136.449L145.108 128.051L139.189 121.505L139.332 119.492C139.4 118.497 139.4 117.498 139.332 116.504L139.189 114.49L145.113 107.949L140.263 99.551L131.632 101.404L129.955 100.273C129.131 99.7164 128.27 99.218 127.376 98.7815L125.562 97.898L122.849 89.5H122.845Z" fill="#3E3E3E"/>
<path d="M118 103.75C121.779 103.75 125.404 105.251 128.076 107.924C130.749 110.596 132.25 114.221 132.25 118C132.25 121.779 130.749 125.404 128.076 128.076C125.404 130.749 121.779 132.25 118 132.25C114.221 132.25 110.596 130.749 107.924 128.076C105.251 125.404 103.75 121.779 103.75 118C103.75 114.221 105.251 110.596 107.924 107.924C110.596 105.251 114.221 103.75 118 103.75V103.75ZM118 108.5C115.48 108.5 113.064 109.501 111.282 111.282C109.501 113.064 108.5 115.48 108.5 118C108.5 120.52 109.501 122.936 111.282 124.718C113.064 126.499 115.48 127.5 118 127.5C120.52 127.5 122.936 126.499 124.718 124.718C126.499 122.936 127.5 120.52 127.5 118C127.5 115.48 126.499 113.064 124.718 111.282C122.936 109.501 120.52 108.5 118 108.5V108.5Z" fill="#3E3E3E"/>
<defs>
<filter id="filter0_di_587_296" x="0" y="0" width="235" height="235" filterUnits="userSpaceOnUse" color-interpolation-filters="sRGB">
<feFlood flood-opacity="0" result="BackgroundImageFix"/>
<feColorMatrix in="SourceAlpha" type="matrix" values="0 0 0 0 0 0 0 0 0 0 0 0 0 0 0 0 0 0 127 0" result="hardAlpha"/>
<feOffset dy="4"/>
<feGaussianBlur stdDeviation="25"/>
<feComposite in2="hardAlpha" operator="out"/>
<feColorMatrix type="matrix" values="0 0 0 0 0.32549 0 0 0 0 0.592157 0 0 0 0 0.905882 0 0 0 0.5 0"/>
<feBlend mode="normal" in2="BackgroundImageFix" result="effect1_dropShadow_587_296"/>
<feBlend mode="normal" in="SourceGraphic" in2="effect1_dropShadow_587_296" result="shape"/>
<feColorMatrix in="SourceAlpha" type="matrix" values="0 0 0 0 0 0 0 0 0 0 0 0 0 0 0 0 0 0 127 0" result="hardAlpha"/>
<feOffset dy="4"/>
<feGaussianBlur stdDeviation="25"/>
<feComposite in2="hardAlpha" operator="arithmetic" k2="-1" k3="1"/>
<feColorMatrix type="matrix" values="0 0 0 0 0.3255 0 0 0 0 0.591687 0 0 0 0 0.904167 0 0 0 0.5 0"/>
<feBlend mode="normal" in2="shape" result="effect2_innerShadow_587_296"/>
</filter>
</defs>
</svg>
